<svg width="50" height="50" viewBox="0 0 50 50" fill="none" xmlns="http://www.w3.org/2000/svg">
<rect y="3.05176e-05" width="50" height="50" rx="8" fill="#23BDEE"/>
<g clip-path="url(#clip0_436_1773)">
<path d="M18.1247 11.25C17.5823 11.25 17.1426 11.6898 17.1426 12.2322V14.1965H19.1069V12.2322C19.1069 11.6898 18.6671 11.25 18.1247 11.25Z" fill="white"/>
<path d="M31.8747 11.25C31.3323 11.25 30.8926 11.6898 30.8926 12.2322V14.1965H32.8568V12.2322C32.8569 11.6898 32.4172 11.25 31.8747 11.25Z" fill="white"/>
<path d="M35.8036 14.1965H32.8571V18.125C32.8571 18.6675 32.4174 19.1072 31.875 19.1072C31.3325 19.1072 30.8928 18.6675 30.8928 18.125V14.1965H19.1071V18.125C19.1071 18.6675 18.6674 19.1072 18.125 19.1072C17.5825 19.1072 17.1428 18.6675 17.1428 18.125V14.1965H14.1964C12.5692 14.1965 11.25 15.5156 11.25 17.1429V35.8036C11.25 37.4309 12.5692 38.75 14.1964 38.75H35.8036C37.4308 38.75 38.75 37.4309 38.75 35.8036V17.1429C38.75 15.5156 37.4308 14.1965 35.8036 14.1965ZM36.7857 35.8036C36.7857 36.3461 36.346 36.7858 35.8035 36.7858H14.1964C13.654 36.7858 13.2143 36.3461 13.2143 35.8036V23.0357H36.7857V35.8036Z" fill="white"/>
<path d="M19.1076 25H17.1433C16.6009 25 16.1611 25.4397 16.1611 25.9822C16.1611 26.5246 16.6009 26.9643 17.1433 26.9643H19.1076C19.65 26.9643 20.0897 26.5246 20.0897 25.9822C20.0897 25.4397 19.65 25 19.1076 25Z" fill="white"/>
<path d="M25.9826 25H24.0183C23.4759 25 23.0361 25.4397 23.0361 25.9822C23.0361 26.5246 23.4759 26.9643 24.0183 26.9643H25.9826C26.525 26.9643 26.9647 26.5246 26.9647 25.9822C26.9647 25.4397 26.525 25 25.9826 25Z" fill="white"/>
<path d="M32.8576 25H30.8933C30.3509 25 29.9111 25.4397 29.9111 25.9822C29.9111 26.5246 30.3509 26.9643 30.8933 26.9643H32.8576C33.4 26.9643 33.8397 26.5246 33.8397 25.9822C33.8397 25.4397 33.3999 25 32.8576 25Z" fill="white"/>
<path d="M19.1076 28.9286H17.1433C16.6009 28.9286 16.1611 29.3683 16.1611 29.9108C16.1611 30.4532 16.6009 30.8929 17.1433 30.8929H19.1076C19.65 30.8929 20.0897 30.4532 20.0897 29.9108C20.0897 29.3683 19.65 28.9286 19.1076 28.9286Z" fill="white"/>
<path d="M25.9826 28.9286H24.0183C23.4759 28.9286 23.0361 29.3683 23.0361 29.9108C23.0361 30.4532 23.4759 30.8929 24.0183 30.8929H25.9826C26.525 30.8929 26.9647 30.4532 26.9647 29.9108C26.9647 29.3683 26.525 28.9286 25.9826 28.9286Z" fill="white"/>
<path d="M32.8576 28.9286H30.8933C30.3509 28.9286 29.9111 29.3683 29.9111 29.9108C29.9111 30.4532 30.3509 30.8929 30.8933 30.8929H32.8576C33.4 30.8929 33.8397 30.4532 33.8397 29.9108C33.8397 29.3683 33.3999 28.9286 32.8576 28.9286Z" fill="white"/>
<path d="M19.1076 32.8571H17.1433C16.6009 32.8571 16.1611 33.2969 16.1611 33.8393C16.1611 34.3817 16.6009 34.8214 17.1433 34.8214H19.1076C19.65 34.8214 20.0897 34.3817 20.0897 33.8392C20.0897 33.2968 19.65 32.8571 19.1076 32.8571Z" fill="white"/>
<path d="M25.9826 32.8571H24.0183C23.4759 32.8571 23.0361 33.2969 23.0361 33.8393C23.0361 34.3817 23.4759 34.8215 24.0183 34.8215H25.9826C26.525 34.8215 26.9647 34.3817 26.9647 33.8393C26.9647 33.2969 26.525 32.8571 25.9826 32.8571Z" fill="white"/>
<path d="M32.8576 32.8571H30.8933C30.3509 32.8571 29.9111 33.2969 29.9111 33.8393C29.9111 34.3817 30.3509 34.8215 30.8933 34.8215H32.8576C33.4 34.8215 33.8397 34.3817 33.8397 33.8393C33.8397 33.2969 33.3999 32.8571 32.8576 32.8571Z" fill="white"/>
</g>
<defs>
<clipPath id="clip0_436_1773">
<rect width="27.5" height="27.5" fill="white" transform="translate(11.25 11.25)"/>
</clipPath>
</defs>
</svg>
