<svg width="50" height="50" viewBox="0 0 50 50" fill="none" xmlns="http://www.w3.org/2000/svg">
<rect y="-6.10352e-05" width="50" height="50" rx="8" fill="#F88C3D"/>
<path d="M30.175 20.9306C30.4819 20.9306 30.7392 20.8261 30.9469 20.6173C31.1545 20.4084 31.2583 20.1496 31.2583 19.8409C31.2583 19.5322 31.1545 19.2755 30.9469 19.0708C30.7392 18.8662 30.4819 18.7639 30.175 18.7639H24.1083C23.8014 18.7639 23.5441 18.8683 23.3365 19.0772C23.1288 19.286 23.025 19.5448 23.025 19.8535C23.025 20.1623 23.1288 20.419 23.3365 20.6236C23.5441 20.8282 23.8014 20.9306 24.1083 20.9306H30.175ZM30.175 29.2361C30.4819 29.2361 30.7392 29.1317 30.9469 28.9228C31.1545 28.714 31.2583 28.4552 31.2583 28.1465C31.2583 27.8377 31.1545 27.581 30.9469 27.3764C30.7392 27.1718 30.4819 27.0694 30.175 27.0694H24.1083C23.8014 27.0694 23.5441 27.1739 23.3365 27.3827C23.1288 27.5916 23.025 27.8504 23.025 28.1591C23.025 28.4678 23.1288 28.7245 23.3365 28.9292C23.5441 29.1338 23.8014 29.2361 24.1083 29.2361H30.175ZM19.2333 21.725C19.7497 21.725 20.1918 21.5411 20.5595 21.1734C20.9272 20.8057 21.1111 20.3636 21.1111 19.8472C21.1111 19.3308 20.9272 18.8888 20.5595 18.521C20.1918 18.1533 19.7497 17.9694 19.2333 17.9694C18.7169 17.9694 18.2749 18.1533 17.9072 18.521C17.5394 18.8888 17.3556 19.3308 17.3556 19.8472C17.3556 20.3636 17.5394 20.8057 17.9072 21.1734C18.2749 21.5411 18.7169 21.725 19.2333 21.725ZM19.2333 30.0306C19.7497 30.0306 20.1918 29.8467 20.5595 29.479C20.9272 29.1112 21.1111 28.6692 21.1111 28.1528C21.1111 27.6364 20.9272 27.1943 20.5595 26.8266C20.1918 26.4589 19.7497 26.275 19.2333 26.275C18.7169 26.275 18.2749 26.4589 17.9072 26.8266C17.5394 27.1943 17.3556 27.6364 17.3556 28.1528C17.3556 28.6692 17.5394 29.1112 17.9072 29.479C18.2749 29.8467 18.7169 30.0306 19.2333 30.0306ZM13.1667 37C12.5889 37 12.0833 36.7833 11.65 36.35C11.2167 35.9167 11 35.4111 11 34.8333V13.1667C11 12.5889 11.2167 12.0833 11.65 11.65C12.0833 11.2167 12.5889 11 13.1667 11H34.8333C35.4111 11 35.9167 11.2167 36.35 11.65C36.7833 12.0833 37 12.5889 37 13.1667V34.8333C37 35.4111 36.7833 35.9167 36.35 36.35C35.9167 36.7833 35.4111 37 34.8333 37H13.1667Z" fill="white"/>
</svg>
